<?xml version="1.0" encoding="UTF-8"?>
<svg width="90px" height="21px" viewBox="0 0 90 21" version="1.1" xmlns="http://www.w3.org/2000/svg" xmlns:xlink="http://www.w3.org/1999/xlink">
    <!-- Generator: Sketch 55.2 (78181) - https://sketchapp.com -->
    <title>Group 10</title>
    <desc>Created with Sketch.</desc>
    <defs>
        <linearGradient x1="27.3289363%" y1="38.3688714%" x2="100%" y2="100%" id="linearGradient-1">
            <stop stop-color="#FC4C82" offset="0%"></stop>
            <stop stop-color="#FB776C" offset="100%"></stop>
        </linearGradient>
    </defs>
    <g id="Page-1" stroke="none" stroke-width="1" fill="none" fill-rule="evenodd">
        <g id="Group-10">
            <path d="M35.7219149,10.7791304 C35.7219149,14.0817391 33.2175671,16.413913 30.1027845,16.413913 C26.9880019,16.413913 24.4523497,14.0817391 24.4523497,10.7791304 C24.4523497,7.47652174 26.9880019,5.16 30.1027845,5.16 C33.2332193,5.16 35.7219149,7.47652174 35.7219149,10.7791304 Z M27.1914802,10.7791304 C27.1914802,12.7043478 28.3184367,13.9721739 30.1027845,13.9721739 C31.855828,13.9721739 32.9984367,12.7043478 32.9984367,10.7791304 C32.9984367,8.8226087 31.855828,7.58608696 30.1027845,7.58608696 C28.3184367,7.58608696 27.1914802,8.8226087 27.1914802,10.7791304 Z M45.9238523,7.57043478 L45.9238523,16.3043478 L43.2473305,16.3043478 L43.2473305,15.1147826 C42.7151566,15.866087 41.7760262,16.3982609 40.6021132,16.3982609 C38.5829827,16.3982609 37.2212436,15.0052174 37.2212436,12.6730435 L37.2212436,7.57043478 L39.8821132,7.57043478 L39.8821132,12.3130435 C39.8821132,13.5026087 40.5551566,14.16 41.5568958,14.16 C42.5899392,14.16 43.2473305,13.5026087 43.2473305,12.3130435 L43.2473305,7.57043478 L45.9238523,7.57043478 Z M48.3623114,13.2678261 L48.3623114,9.79304348 L47.2979635,9.79304348 L47.2979635,7.57043478 L48.3623114,7.57043478 L48.3623114,5.44173913 L51.0388331,5.44173913 L51.0388331,7.57043478 L52.7918766,7.57043478 L52.7918766,9.79304348 L51.0388331,9.79304348 L51.0388331,13.2991304 C51.0388331,13.8156522 51.2579635,14.0347826 51.8527462,14.0347826 L52.8075288,14.0347826 L52.8075288,16.3043478 L51.4457896,16.3043478 C49.6301375,16.3043478 48.3623114,15.5373913 48.3623114,13.2678261 Z M57.06164,8.80695652 C57.5468574,8.04 58.4703357,7.44521739 59.7538139,7.44521739 C61.8981618,7.44521739 63.6042487,9.16695652 63.6042487,11.9217391 C63.6042487,14.6765217 61.8981618,16.4295652 59.7538139,16.4295652 C58.4703357,16.4295652 57.5468574,15.8191304 57.06164,15.0834783 L57.06164,20.4678261 L54.3851183,20.4678261 L54.3851183,7.57043478 L57.06164,7.57043478 L57.06164,8.80695652 Z M60.8807705,11.9217391 C60.8807705,10.5286957 59.9729444,9.7773913 58.9555531,9.7773913 C57.9538139,9.7773913 57.0459878,10.5443478 57.0459878,11.9373913 C57.0459878,13.3304348 57.9538139,14.0973913 58.9555531,14.0973913 C59.9729444,14.0973913 60.8807705,13.3147826 60.8807705,11.9217391 Z M65.1035774,16.3043478 L65.1035774,4.72173913 L67.7800991,4.72173913 L67.7800991,16.3043478 L65.1035774,16.3043478 Z M69.2794278,11.9217391 C69.2794278,9.16695652 70.9855147,7.44521739 73.1298625,7.44521739 C74.428993,7.44521739 75.3524712,8.04 75.8220365,8.80695652 L75.8220365,7.57043478 L78.4985582,7.57043478 L78.4985582,16.3043478 L75.8220365,16.3043478 L75.8220365,15.0678261 C75.3368191,15.8347826 74.4133408,16.4295652 73.1142104,16.4295652 C70.9855147,16.4295652 69.2794278,14.6765217 69.2794278,11.9217391 Z M75.8220365,11.9373913 C75.8220365,10.5443478 74.9298625,9.7773913 73.9124712,9.7773913 C72.9107321,9.7773913 72.002906,10.5286957 72.002906,11.9217391 C72.002906,13.3147826 72.9107321,14.0973913 73.9124712,14.0973913 C74.9298625,14.0973913 75.8220365,13.3304348 75.8220365,11.9373913 Z M84.5526695,13.0330435 L86.5561477,7.57043478 L89.4517999,7.57043478 L83.973539,20.4521739 L81.093539,20.4521739 L83.0970173,16.0069565 L79.5439738,7.57043478 L82.533539,7.57043478 L84.5526695,13.0330435 Z" id="Outplay" fill="#1F345D" fill-rule="nonzero"></path>
            <g id="paper-plane-solid-(1)" transform="translate(0.000000, 0.652174)" fill="url(#linearGradient-1)">
                <path d="M18.7974737,0.127546426 L0.493244552,10.6842739 C-0.221548429,11.0948572 -0.130718382,12.089732 0.580125467,12.3897736 L4.77805331,14.1505442 L16.123911,4.15442078 C16.3411132,3.9609729 16.6491456,4.2570666 16.4635363,4.48209781 L6.95007618,16.0692314 L6.95007618,19.2473038 C6.95007618,20.179012 8.07557894,20.5461682 8.62845749,19.8710745 L11.1361566,16.8193354 L16.0567757,18.8801476 C16.6175525,19.1170226 17.257312,18.765658 17.3599894,18.1616269 L20.2033648,1.1066296 C20.3376353,0.309150563 19.4806736,-0.267245178 18.7974737,0.127546426 Z" id="Path"></path>
            </g>
        </g>
    </g>
</svg>